<?xml version="1.0"?><svg width="640" height="480" xmlns="http://www.w3.org/2000/svg">
 <title>Hotel Motel Sleeping Accomodation clip art - Black/White</title>
 <g display="inline">
  <title>sgfdg</title>
  <g id="svg_10">
   <g id="svg_11">
    <path d="m182.205002,241.548004c24.682999,0 44.690994,-19.57901 44.690994,-43.730011c0,-24.154999 -20.007996,-43.737 -44.690994,-43.737c-24.680008,0 -44.688995,19.582001 -44.688995,43.737c0,24.151001 20.008987,43.730011 44.688995,43.730011z" fill="#000000" id="svg_12"/>
    <path d="m182.205002,197.817993" fill="#000000" id="svg_13"/>
   </g>
   <path d="m278.704987,185.416l178.634003,0c26.208008,0 41.645996,16.507004 41.645996,38.606003l0,63.274994l-220.279999,0l0,-101.880997z" fill="#000000" id="svg_14"/>
   <path d="m230.080994,208.057007l0,37.949997l-68.681,0c-33.15799,0.115997 -33.21199,41.826004 0,41.826004l90.041,0c13.149002,0 21.380997,-10.386017 21.380997,-22.134003l0,-57.641998c0,-31.577011 -42.740997,-31.577011 -42.740997,0z" fill="#000000" id="svg_15"/>
   <path d="m128.983002,148.953003c0,-34.438004 -48.825203,-34.438004 -48.825203,0l0,276.152985l49.909203,0l0,-71.316986l379.737991,0l0,70.781006l48.822998,0l0,-213.291c0,-36.343002 -49.36499,-36.343002 -49.36499,0l0,85.13298l-380.279999,0l0,-147.458984l0,0l0,0l0,0l0,0l0,0l0,0l0,0l0,0l0,0l0,0l0,0l0,0l0,0l0,0z" fill="#000000" id="svg_16"/>
  </g>
  <rect ry="15" rx="15" height="38" width="308.517" y="56.5708" x="5.22979" stroke-width="0" stroke-linejoin="null" stroke-linecap="null" stroke-dasharray="null" fill="#000000" id="svg_18" transform="rotate(-19.345399856567383 159.48829650878906,75.57080078125) "/>
  <rect ry="15" rx="15" height="38" width="309.035" y="54.3098" x="303.06" stroke-width="0" stroke-linejoin="null" stroke-linecap="null" stroke-dasharray="null" fill="#000000" id="svg_1" transform="rotate(18.19729995727539 457.57748413085943,73.30979919433608) "/>
  <text font-style="normal" font-weight="bold" xml:space="preserve" text-anchor="middle" font-family="Sans-serif" font-size="69" id="svg_2" y="148" x="310" stroke-width="0" stroke="#000000" fill="#000000">Hotel</text>
 </g>
</svg>